<mxfile host="app.diagrams.net" modified="2024-05-13T21:12:47.414Z" agent="Mozilla/5.0 (Windows NT 10.0; Win64; x64) AppleWebKit/537.36 (KHTML, like Gecko) Chrome/124.0.0.0 Safari/537.36" etag="PkT6yOgbMdhaxswJiN1s" version="24.4.0" type="device">
  <diagram name="Page-1" id="CWShL2SzJjqYnRqqcm_S">
    <mxGraphModel dx="1434" dy="1872" grid="1" gridSize="10" guides="1" tooltips="1" connect="1" arrows="1" fold="1" page="1" pageScale="1" pageWidth="850" pageHeight="1100" math="0" shadow="0">
      <root>
        <mxCell id="0" />
        <mxCell id="1" parent="0" />
        <mxCell id="Pe86LyMRVKb3A-CW0fFo-1" value="" style="whiteSpace=wrap;html=1;aspect=fixed;rounded=0;shadow=1;" vertex="1" parent="1">
          <mxGeometry x="30" y="-10" width="780" height="780" as="geometry" />
        </mxCell>
        <mxCell id="Pe86LyMRVKb3A-CW0fFo-2" value="&lt;font style=&quot;font-size: 18px;&quot;&gt;Http:// Warnerbros.com&lt;/font&gt;" style="rounded=0;whiteSpace=wrap;html=1;fillColor=#dae8fc;strokeColor=#6c8ebf;align=left;" vertex="1" parent="1">
          <mxGeometry x="50" width="750" height="30" as="geometry" />
        </mxCell>
        <mxCell id="Pe86LyMRVKb3A-CW0fFo-8" value="" style="shape=image;verticalLabelPosition=bottom;labelBackgroundColor=default;verticalAlign=top;aspect=fixed;imageAspect=0;image=data:image/png,iVBORw0KGgoAAAANSUhEUgAAANwAAADlCAYAAAA4L5nkAABKAUlEQVR4Xu1dCVzVVfZ/IsiOKCCIAi7giguolEpK5lSWZqU1ak0N7aXt9a+cqahp1JkadXIsy4wpS620NC1bRkPFTETccEMUERcQF/ZV5f89v/cePeHB77577+/3HsvvM1TzeXc599x77tnPbWNo/RwaA2VVl91PnS8LzswrDc8+X95z3+mSIZtySkb7tnMqGhXmsyGik8e+iECPA2EBnidC/DzOOvRiWoEztGnFgWNgIOd8Wefs/NKwI3llvY+cLev/a05xXNKZsmGGqisGgxO2iXaqLf5B/03/pq8av9F3ucZgwP8Ml/D/vV0MU8K8V/fp5LG3VyeP/X2CvfZ36eh+KrC9W4FjrLRlQ9FKcDruf15hhf+pC+XBh06X9M++UN5jz+nSoUmnS8fkFlT5XEVUtCttLAjLVhiJAK/gz0yI9N/4IgPdM4cFeaQM7Oy5MzzQ81DPTp4ZXf3cj/u4u1yydYrW9nwYaCU4Prw12AsioPPxs6UR2efKukEE7GESAUel55X3VDo1xK0kw2F1ODMh1uWKLk6GuK6eOwYHeaQO6uK9M8zfPTMiyOtgq4gqf1NaCY4Tp+BWgVlnS3seO1vWK/10SdTe3NLodSdKYuuJgGYiM4uBnPNp3k3hhibR1IIzBvm2K48L9kwaFOy5M7KLd1qXDm7Hw4O8DoArVmoOUzOcoJXgVDYVulXwkdySvhm5pf1M3Or69PyKUEVksye30vMwWoqoNC/pjkauuGdEiPcmGG7S+wZ77esOERW64gU9QWtqc7USnGnHQFihIKw+IKy+IKyoVZmF03IvVLrUGinMHMrSaNHUdls2vJZc8ZJJbwR+Yrt47Bsa7JkC8TQVhLgbhHgYhHhR9vRNcbwWR3DQsZygY/XenV0YDVFw8ObsohuST5VFKRyLiMpMWLjBWz9ODNQlRLKeurU1jA/1ShrZzWcjRNPUPp290iM6e+dwztBkuzV7gjtypjhix7GCESnZhcNXHC64BxZBrxYjCjrasbRiPYXlNGty345fDAnz2TY4rP12GGryHA1smfA0O4KDMcN3Q3r+hG/Tz92x4lDBHQqyaJXO+IdzK9eSeXikjGVJhPTfrk6G6QP8ltzc33/N6L7+P8M4UyFlHgcZpFkRXPzHexIT08792dAOhEUioaNbBh3kEDgcGGSUIeKD0z/xrvCH4keHLXE4GDkBajYEB6NHl5DXt500+LhwoqK1m0NioOKywTD3+mZzTpuNjLVkc84Mg3tbhzwzrUCJYWD97txbxUZwnN7N5uYwPPdLDVnCWr9mhgGIlnGB7ilJz8Vc0xxW1iw4HG7ACc1hM1rXYAUD0MOTsopjoDIENQf8NAuCW7jl5HOKkaQlfGRMIL+WOVOgJawZksvKlNP3N4elNnmRktwAgX/depHSUprV13DEf85tEb6rzhRXdVmfXXwnomHaKu4Oc/qOaKaBoyKR8PGP0U3+vDo7Kn5Z4fom9cx9TVZ3ayh63xiVkTwwyDM1Mthre6ifWyaiMg4iPKo0HYihP8sPzv3QnAvloQhLG3QorzQq9XTpcETP9FM4oZnz182lY0Wwo7SDi+C3I+eHXxvht81RQOKBo8nfGIaZm43JXo78NcytTowO8dowINgrLczP/XCYv8fRfl19jslaCrh/B+TfdTl1sSI0/VTxMOTfDUP+3U3gis5NjitChI7v2+HLxAcG/VEWfuwxTpMmuLSsi4Oi392922HcAdYysD2cDeO7em4Z2tV7GzKw9/To5HEIwbxHwK2K7bHh5jlhhAhAhnkPZJhH7jlVfC244rXJp8sizZkASjtH44qllwxlb4928WjXtskmzDZpkXJJ8smnlZAtPb+6YiD9f3yICTyFbOpfrwnz2QJuddDErbLot3WmPz3BVJsLMYv5aEN/2/FXG8lRVF7tkplbEg6uGGLiijErsotvMxRXG0PjrJV6UJtM1u+4AL7YdjIewy2WNaTe4+h8WiUv78kNNZoaS+qKgtCJIjt7mMXA1F5BnnuRGX3YdHglL87xhoOuGIZiRr0PnUHC7ZnSYTDajId46qonIQZBJ819I7bJntsmC3jCN4fnJPx65iVp7gCzOGjO6/J0pmI8a64J9U4eFOqTEtLR/TgMFyccjwzsCxHSndoi3ann0bOlvcARh249XhSHzPfRBgrJMsezyswhxLhr7+1z14Tozivtu3K+2ZsEwR04WUT5a8OQYnPd/44Xj0N9kJDaAGW+dRv9WMTB6A/EFR/e/otRPX1/AnFtRwmBQ4hSx4lp/XgxAINNe3DEfumnSoYmZRbctCKz8Fal/ATphaKZG0TM2LfYEM9dY3v6fo/Unq3Ir9vfFC5EhyM4M3EhOTT62yMFk9LPlIXWiiy0UaLVrLBZqNNx+bHBAXNG9erwQ/+uPumtJeR4ycq2fmSoocTfDYfOT5y/69zjBpImROJfrVh/QYQ7QYQ/ggh/AxHuAxEetw1KbVvbleBwA4ZDH+i37WjB9SbiCpFGXHXxhs2JbN8uY/2jg2Jbis6l7dERHx1W5sjoBbv3SfWj1iVCgImSD7uJE17Tvf3myBCf3fZMctWN4CDru6UduzBsR1bhyDUHL0xOyikdomyZOTlUhHOx7D042/r7+o4fNzjoO5bmrW30wcDstRmvvrL59JvSdHFrYNdNcoVYO6W377q4cN+fYnr4/hLdvUPdWALNFq8bwRlmwKJISjSJhTKVaFbUkM72dpx+62WFq4W3g5jpH5KwLV9Ta3NjRAi9Ei6dvPSZw3UJjtYl4nfZ1hxjFjbJ6/bIxAaxzR4V/GoLP9sOuXyId+fiuntvV4xXen5kvKGzCIMZjHCBZDvQY3pdCG7ad1mJUuV0WzEDcfLeEV0/sLVba3t9MPB8XMhbds1+QOzqm98dfVuP1WpOcGvTztyp+GTs9VECI27QVkOJvTZAfV741NbpzuEswQK3W5F+YQIZ8dShFWuhOcFNWHlklV25G8RJ3KCzxdDU2ltrDDxzTacPlOwGe32IeX3128z5Wk+vKcEpups9uRthD6oBbtA1WiOydXwxDNw3vMv7hko7EpyRy90KLmd8dEWjT1OCm/btMfvqbuBuM0cE/VMj3LUOKxEDMM3vQUCCxBE5hgKXe3blYU1L8mlmJl+0Ieupx747/m+7ipOIcD8yM6Ybog2yOdCvWxd64up8cSW9HReSX1wViEj9brlFVaEF5dV+ucXVwY/EdvnHmP6dklgAQn2XcduzCmPbu7UtGNa9/a8Dw3x3IEytiqWvvdskbsp+JH7NsQ/semaQAvTbjEGxSHTdqgU+NCE4pHj4+Ly8pZBMrrp/Zicn/CtxYV7bUe3pWt1haGBCKgcBkaUvctD6IActandu2VC8cjpcEbvNVaHN6S80Bv03xKy19/e9DWLxWrV1JB/Kj4n9z97tteFShAvyP6L8xDORHRfe0Mdvnamm/0m1sezxOy6eNh7PJV1RXEj2ysUDzoLc2pYiI8FLCxxIJTgcKL/9J4ui3vzx+N+T8spjNK98bCYuc4Q/zLvxvX2/RE7a5sguXjti+wSkaIE01jFx8XivS8ud/PPhCzcnHrx4dy1hKTGhRFD4h1p1aBDjxgf7jwaH26w2L3TmKdNWZS63yiHIIEF4IpxhzvjIjl/8oXfH767r4/eTPUOd6q6JXolNyyqI3p1TNASZB9evO1b8h6seWtEjaAKX1PSBfp9NHRb0ASSEnZAQytVwz/o7N8HhMLnDWTho94miYduzi0bjQE2qTcnQwrltSVymt6wR4b8MxLVpcKjPDpQmSAdikCXpQB+VfygH9zLf2Dygof9vTwwcChFnp1p3ENw0ENznTCKZmfuZ6vk/M9j/g5v6oZ5/v4CfkFFtRz9O/VUiGsWPnhLbc6Lomg2ZBbci/WdMbeaBVpywTjbJ9L4dlo7s4fsz3kzfA31zr9peNPQ7M8GBuPoh0nsoUmRG4hWaR/AKjTFES6tQLfOC6d9QZsG5lhPnMhHXvqagl0TO2padXlgVqsrFGts9EFzaU4MHsMT7geDuAcF9xkRwdec0c0DgG37LHfcPCfxobGTAt+B+ubyHS8t+VK8F0lQkiDAGRHjzuqzisWburUk0k/k80qLw30hEPoXqaV8N7+mbhFd/UoCnMyzrtUpwkKVdEWgcg0DjEQg0/mNSdklU7RNPorlMLFAZWfpH4wcEfBnd3Te1qT7mB4I7AYILESI4iJRpT+pAcJb7YqEHU+mIGdcE/fPWwYFfOirxmUE3pf8M+2DrqWfXnSwdK4R3tXPaeED0ZrK6WhuiluCgzPdatzvvjlX7z09Nzi4ZpCjxWnEvtcXQ77NGMXNfluFktkFaCXGcfWpjguByQHBdhTYeHO7A80MiIDJnqs0HK98DsPIt4eJwDQ1+NfGdfn5k8Ju3DA78wpFzCKHuuPr83+YKuwVEmxKbx4f7JE0aGLAc+Poa+DpHKHaiFPmg15NrImalHH5248k5yfkVgxRA7RVojBs98aawR9UOl56/YwPdIK7dO35B6s+U9fDUqoyvGeeXEpHr0rYNq27aRoi4rS3KMsi3sCo4fl3WIiq8C1xsdNQS81A3KuOj/JfpHp9pxhW9cQELPbhsHPD1AfCVHzc3RdH76PndMEUfIyLTwtjBeDItm+E9sA85ukntgovIBUT2JyBqG27LcuhGSxUxBRdRREe336ROpj6YY3B784HCWQEurh/36cFv6REV1JeZDQmpu/oy9Gsxc1yPV+0e5WSBr6RjxQMUgrtQUtle+q3Ii1fobvP+EPIib3cZ/VDd91o87PiZx4ubqkBkn8K9ca1yGdGtRQjE/8ipzDKXbzsnKkMn/Lm1a+t4r4ASLggn+EMxp5cj5uw4FvvO9jRwvfHCC5YwAIIdjk2J7PiNXYOiLdcBfJGhx+li2SU/CeuTMwT8RM+OC39HzmDsoxA3oygHiNZV1763dxtcHPcoTnszkVkOBSHR192FieCcnZhFQXZgHbGlKa8M6kjUuE8OrjW8tKmGIo2AV01DB9VQ8bfbwl80lDlIzVhY9IvKqr2dzhVXdXYIDgfdbdH4bk+pIVHm77hxAmZ+dfAd4mYUUpRbfcWlVndtZCJwuEIWOLxcnMSrK19hVwMrL11xZYFLszbE9Uj3x78f+yH738DrZYibs4DnjprN2cjA4HJHweXWOAqXK6645ONUUFbtGByONumG7gv02Bhy2j+zLH0hlNmzs1Lynq/lZoyTu7drW8rYlJ1aGAdUaab3fA2DY+J6EDdfAZ7PT1+67yOY7TvLWSb7KG9P7j3DgPhIu3+4i0BrHZ0KKy53UMKM9PzMUQ4UQ0iRGEXVho1/7neDHiAgIXYijCBl83efe6LWUGTjxK7OTpUsXbzatS1haafWpp2zE6uVUm0o/X8nwoMOvHDf+QdRu+Q09ONl9B67XoDAd3hy9k0hr9MZU84anTk75d2VVl72cUZEeiclpk/LzxzFQPcvRCQ4U+mNM/LS/4xg2gNUwHPMf7QE4PexJ3x2aLWQfwaXBSvBYVbH4Tj6oLfhWciv6+1kgH48NTFt21RIGO+/eUfvF2DCL9MatFcm9HoTc7yJaKkIREtFIVpqNKKlHoJ1vp2m0VKWC4MEV1x+ydcZHM5f6oLreOApxwly9OKYsPYbKQSGnmOy9saZVBgaGAyipAeyGPSYyl5zaHxzSlgWcTz8QcJ4fP62vMdRJi/h6Zt6zkH8JpPUIAIBzt4R9Ke/L/E3nXzQh04V9UV42JDNRwtuSTxccLdiZNGiRDsmhI7t5lxefcVDZBFKX4u4x9gwr72T+vutQC7WJkRap1LM43zhCeQMUFhW3UG50QQ/b3fnIpYh3F2cNL+9WeBwyDYmjoealAmvbDyVQNUBpo0M+URPWE1B2ub7n+b+I2W8IFthKHIKR688eGEqKn93UwhQgo+adDjnkqrLPkKLNMY9Jk6KDlyKFJJfkjEY/Tnil19UGai7vioBETDSNIkEUq6lKofZYIDP879wyyz+/s/9r0XYXBrXWBI6IQTrPIb50fQ3E1JR200Hz41DfOZz63JKrq/NW+SYq+LSFXengkqIlGo5WQ0NDt1sZkzgvIV/GvAAERsHDLp2qSKzub5aVY2Sy9X6qWMAPs/cissu0XPTdlLgAQ66Jgmg6oBc3YIedaGqYuueHDom0tc1m9vFAMGq8lKNm1NB1ZUOtgJR2x5nKbSjWwZ3fwkdKbscvh4mZzlkdk8ZHA4ObSY7s4eLE6v7QAImlCHE5WVZkPCMQxc/LJqJhy7eA127GGLm/TzDaNUn0s+NvyQ6aAUXvhtFAvCbnGEg6dLBzW5vpiE65HGY+Av/d7TgThYkV1ZfcWdpx9CGiW0pQcc6kkB51WVxfZxh8Zo3If0OkT7TVmb+F+FiqdCrOmk+J8MEPYi51DBtff3RYDsoq77s5XSu8nIAw1wNNvF0leNrsgUGmHf7Qt6vQHTIexR+1dW73X5b+uvV1sOlrbjRxDaRVAp545XRUvydVRzG5ocq9UKa5TyIWkG42BA4zvNwuT5sDxAs5wzwcjktopJUX65xJQ7HJB5ZXSzFFXq4MIU5yUIW/DcL+v1jxwHI+67mvC8/D2cl16j1k4ABSC1D/d3SUEQn8MCLQ3skjOg8SyE6chrrXf+flmMSM+NXH/sQ3G4H1YmRsEquIXDWhc+ZE+IHPblmN3XydmMzkYvMQX037j87xvBiUg0e8puhOK7Nhh4let9ZV6K3YS1tRG5EG+aR3VSRm+C3ykq4o/df6NWhjQ/1Hz2lh8/XBpQetAvXM3K7oT4zk4uQkXCL7AWzjOfv3S5P8NJpIxbNDXEHqSOaOizpRpvywa5VYz5M31DrD7HEDo4GQp9YzeacAvjV23HpSg1T/T/ApSluWA4JTxuEpNXzM1LVsBWPRk3Ke2uk37wxXV9SiM709C/PHFx9TMHR4xIPfAdJ512uMQQ6iWZ/lFVf8RIjOABvw2G3eamUZU03Gt6HvrOxGpeuzm0cL18MqwVcUgjOua3usZQN1hyHn+oCUqj+SVwPD1yOw6uy2Yqup6e4CYMKJJ0nUcLiCAwqgTYfLM4O3m64iASvbDGCA4fzZswNs2WNxNUo0xpWqqUs6TJujJzE1cVJWn1BW9bT1NoiQoYJT3hN9gc8ZNgNul4fiJvfKOKmXoHBcJijXkx4YMK2XDKi6YFjD1dnITcP3ERFYgQHUyfCY/iNLlawRL4X+GCKlExrkQfXrYzdrm0bVtFTyv6xXgRSJsMgiGRwEx7LNquoMh10vcMQN+/MSRjeGfUt39dNzzOJmP3m7DiAqtOxwmtXGcDNBZn3YnbgGjGC49ichtZk4mrbyfeiiI+80S+NIA2iWZWoSEDDI+pbLBxO65MhOD5uYi53BpXRmz8t8omif47yQgTSXN04no+LASXet2hNdPCrXhY9P07wt9hd/yFEka6mlEeXzNUsz56W+qa1M44YSLvjlpP2hDQVhEOVzrqr7/MwsHSs5Xha63hEdAv3bkExowjONat2g4GQSdRuaCAQbIUYh1MFka0B3U7m1Hy2HvVaMTF6RSQQ/cB5Kc1CdBiH7Q9M2lCWr9FlUAFf4ngQNbtCx1utuXEF7qKIuTszEMInK6JI3jYZpcEaJ3/XtvzOPAmpLsqKqPa+wEdR2CzdZR0kG2qHCHEKZU2ycMyCoN/biMNtMR9EzVPQ8e5IeyYqCi/TXNG6fN3dH+z6zrbl2tBaQI1C5FGJE0q58Re6sc9hqIcdisJmQZlSbk4AYeY5ELPIRODIDNfVSMOCA5Y2UkLSrEyEtJvdiGBpu+jWbsY6I1qImbBe4sWd66mUBstadWsDyQEqTYUTnHnaLFyvlVBxlnIkljJ8snQ4Vo6qgKTFoWpgrawXDwOqpHK4uvOhWNTCvDdHBMCHd1wTbgc7wITlh1czrNPWJvx4QU/4ZcudUMpNSqEbWyG/qj0lIfJ+9Obg5Rqmt2rhMyySweFYD7YNtU94V39VP0cNALC2OKq1Dx9e94Trgt9SrJmyP1x0VBtT9rAi48FNVOaEMJ4C7kEkiGc0N+R6/ogMJe3hClOyInyG4kYTcFTKa2LEGf+NyDiBZTPWi6DRoXWF2GBArOary6b0miKd6JBFQrUxOdCoWRcqr+iESHv+52clERwMN/kiold+KSqP6fXhQBZWXPJlmQ61T/j1Y5YJtGujK9mhlskXILp7pBMdKnkj6P16qWgSsFv4uDlfdILlrlyGmCWyKBhuLoj0R5kIJh1OmcP8ljbvhEaOypphoevBxZKkzGePoGsQ3bKEMV3fkpqJ4NLGsCot7z7erZbaDyIuLuCLTqiTny8YriIMFxJIs7kHgV8ss7i6N3N/CY51VDpjJThmsFobGsXLIA+xeMWr8IjLdWH6hT/Lwm0Fo3W6oflgoKxyQp38C9z3ogB7tQQKYm2+CJfNLb/E5PimOSO9XPgLwZiAzi2tDmbZRNbaJyxjtZQ2iyf2vE+q5RIpRFT6Tgb+YJxjSstqaC7KNnBCFiuVBeP7oMPRyzN8nX/vFeCFxD6Rr7LBbJJ6o/q7CTj6TaOdq7isn84oghfOvva0dqJC1tci+ny9JUMCOnWhPIgTFVd1q6hGlQHeD8I+sg3KnGC65o8PA4e7dBkvzgh+rO+tNTgNCJ9eKWUBI8jTReyReGxgekl1KMtcSAcSt4qyTGRqo5QBbAZfbIhnukyiQwFWdh2/EfwBv0zup4Y5nHOJUwdP1GkQcM7KqBQV6ON6SgQGCn9CVWWmJ5FExVcFmfYsrKMPQUkxvvCC6utaP+Ocdyzqh2ptUi4ioTKLYAo+Hi7lTpAr+euBGB+Zay+CDOoLoucXa2kAwIGUGabiMhBfz4rCy6pj6J1/J7wuBxngeHF1mExQZEkaeP2G6YxZhR0EBz9cpVNHL1chk7yoIknABbZ3zeU23NAAMJng6WSmR0kgvl4U3kxyDVRdZhEvaoTWJQxo0xwA9fy7yMyHDGrvdkYGJnCp8zMXnBmkLYHDkXNWQICAIsmkOzW24AAfVzEOh8FPnK/oxoJUGImELhjzHNBdVS1WdqhFwoICh26j1J+kp55lfVCXuvq5i+ntJliQJeLOfRGYLPpO7T0E4guNrzr6iuLGz9tVyC1ASMgrqmR65E9CqTNludAZVdctK1haFL9NpT/lsaG474dKdTZZH6oHyHqDDmed2zod5OOihC86ARh2m7oVJECuZYpjbAx/SoyjSEkFEH5+STXTc7aoFM301FSj+22Dzih8bmwNn2P2SDYMGYJsdbWumiFBHtt6oXNQd0koaDS9b4ePhffANADeUuTz54HL9mnfbp9CcMpYvA5sEMm54ipuqrdERKS/22luxOAF12MXKnqx9Ff8jgIitHkOekSEZT57R/EwwVi/kQQM2TYz6kwuXpdVPFoqd6uuMeAZtc9sg6Th1vklVdz+vO6+rpm1BAd2x1U0hgYAm+Wj+jrrwsskO7ldA+QbO18xkAWxUipFg4soJmKVT0pJB7VJrv5dAn+zbUIZrfE81VfzU/Mfkqq7EWDAhsxn1LILKntyMSdIKWEd3I7VEhxqyadyHXYbRDm1jenTyWOfSHhXen5FV7U56Hf4QgpE5jHPwShKN9VS5yyoFG6Tc74sBMVcs/Du92TpxAZf6ezru7wmDKTFAHBX9OAdL8inXU4twYX7cT7DA1HuTHEV00FXAzSsoxu9vcz/QV5neegBSaiFwgTHKErLqqHCjxTH7Qlr5KMhCdtOoJir8Ulf2R9iKKeP7T5P5rCIMOrMpWMan3VT0uCUlQZ6t+N+hieroDJcxqLC/N2PcnFZ8+SIDD95vlw1qBgGmhousaDOInOLKpmMNDJw05zGMNUfTYU1ctFVj7LIXCS4G1J9ZsEgKLeaAW9mOjTiAHoIxExwYR3dj3Mddtz0hwqrmHQnNXyGdHQ/KWTMgHibfa6su9o8yu+ifh7MlVdcpUrcStEiCZ+MeFUJYAgPQa/emOqPDhHeAxVolFd/JH7Q2Z1ELmo/r3aKr1nhcEG+iGXk/HILqlQdwCxDd/HzyBYS9UD82efLe7LMFRvgtovrgjEPDlE6t7haiijNAq8d2kg3vsAw8vm4Jfu/E6w/qo4KcKH19/S5Vb2hbS3OF1dyWyjpvYVAXzfF+a4QHLjLCRHuIqPwJkS9K0K3Ho7IobxSJm6LhFfuC8a8TciJY3K0C10ipsmacsRKWtbFaMNLm2pgGJmmiJBafhAl46P8l+ORke9lT5NfVNmJS38jQKDumJ3vRh3OFz4w3ldP4MMD9UtxDYzv6rmBm/OA6+zOLRvCguggb5dT3G810wRGUZppLhZ41No0VZEy4ZvDf4/+V9pO5aBqYRixRBwME8gWL0t8YNA0NXzy/J5XyBbJVG9swBUZ8LtBUCE4UF+RiHwK6pdCcEO7em/j5gjY1KQzbAQHI9EZEY5OOINIqbpv9qgNogoUWwMhkZLq++MN9uqELadnGlDzX5cPVsk9zw3lNturwZhbWBnCy+HgYz5oHr/WHhsZ6M6Xk4atOXWRzQemtqhenTwOcHM4GrxKcQ2o5j4FUf6d6Nf8c+K4MIRakDMi/p6SgTfYnYVUBFtmL6o2oIz6INS6FKsc0Mic2RcqmOwD9YaA0xs+5vT6BOcHQwLPRynsFyuYMqDVhu8T7HVArU2jv0O8zcwtUX09Jai9YMIrAYG5UCtDSlib0JotOpdVq0e/MM5lc2gXvUSKR+/3Pvbd8QUKVxOJjWUEUmkGYlv/UP9xKKO+15ZutrbNvgiC4wmBhEipMBLTV8vhBgV77uAS58DhTvBSf51Vhwd5ZQhxODKcnC6JVEOmkvBq85GqM6qiu1ZJSd1Xg9fRf8cjmvcFvvZrLh69H6AbVzMR29oH+o2nl1i1xtGO3LKhXHPgnIX6GcO6lHva/B/wxR3jOuwwVuzNLeUDps4KKEFPaMMopvJ0yTA1xMAnIp6Eakx6bbSsAzJ8+evF1O6QkDqlhgqh34mr4WnoXdNWZX6i1SOaDQJo5Gy3oOiQdi/lWEyO0EE+HY7iKAM8T9QjuB6dPDK5bn0c8nVnykYL7ZxFZ+UdMd4aK+A6m7OLxqrBAqvsGW6rrMXgF8suqRmLarikBrUFaP+7KpXT09CBf92ai0c0BwtdkjxrgcHqt6cHDwNnW8/T3dY+SoEqW9OkzJOgHz3XVY/gunfyzOQelMFix7rIa0K9k7nhAPEnnypT9cUpIT888rjlIoy6a6POb/jPLrOu28HaNUhw4GpBpKuBq/1Xs9CshpBBFzGMVXjgMfTaCL9UvXCGkMFQ3vMS1NH1KuWlVqSk10x4B6V+iPxWDXViQdCgUJ8d3ByOJsCNAljUo0DoHXHBD7qrZmZoQdCEuuM5LqupR7BAPg2udkZ3XY1WA7M/RQiV/f06D3AMJfJerw8hgz258hpxQcQFe66zhPOqMG046LhjKrPzS6VUWooI8josRHCkx+UUqRpO4nhTkmplA8akV1FOivlQilC4bozI4US0yDD41SpggZyvO1cjwPF448zhQe8kv3BNNCKSxPViG5Fx6EzJYC6rKy5/RWKz+K4iuLHdvH/kisDAIT+SV9bHxnVYbY7bK0/oCWLAsjun6Fo1WPoHuAvl39H4SHodpDKPqC1UGR7GFylB0Go4qfs7dBcvxEB+HT03LQV+NVfddTUSIcsvGzY+Ejl21l19X7QVflntM8+V9+UaC/CHB3rWOr1pjKsIblAX751chhNI/EfOqutOrECPD/XayM3lwFG+O3zxDrW5uvq6Hldr0+jvxEkLKrs11kbKe3Q2cDjlYUpREgf+ThZU9p69NmO2z8tbihMPAZcUA6mXX82MUBAaRMjUolmxXsja3iC0V4KdN+WUjOFSt7AXfTp77bec/ipFJiLQ46ABb2oZbI3GgWsA1sEbBNdV2318P7+v153AInk2mQwnOepBzHCDZCpEbetaLRdpw5sGsnCj+TjAH16cmaIYriTouVzwwjCSeHuPh+NHh33k8wLXCFI7peeVd+HCBXAY0dm71gdXj8Phxwwuc7nROjhA1ioju3jtUgif98MtfeBkUaNFhZCSxP8QpQVcMNAENgomrzmZd+0y+ukRbNwQnLgEYwPd024ZHLhKxlJEx8D+smWFWJkoyLddPVXgKpESlsqz3FHdOFiyQp0GhvmC4ASq9zm3MWw/enFUY8gWTUlSxgZhI3A7QHRTW/tbYIAu7/yK6MC/bL1AZRjsjZsjuSW9uSQtcOlJ4e2X1YW/XjGJ8d29f+HSn8hwgihxGQiiiBP4L6q44DARwo+HLtzZGCxKSpIo95EYuC0Db81mDOKwiMeMX31s0ZQPdq2157r2nCiK4SI4AD001GerKsGN7OaziesgkhHhVIma1Y4Zdw9E+i3ggoNmACwrDhWMa2wyEHUVLyJrxzU6v6W4Q5gR05Ia4rXaFZmF41HZK8Ney95+ongUl8EEKhF8yvWc8/U43OAQnxQuzgLxant2UZwsxFwX0eEnLjgsAIAe168xeFB89oTQHMYsc2m6qyzcNatxkLiafrGS8uvkFgRiRNKKY0XjuC5mSE8IxleKv1p+9QguurvvNq5DiNs+8XDBXYzrUG0GOH7jgsM8MvS4zYfP/6GxiUaHeG3g5qI0sDHLPEZ1Ma0NxDAAosstu+SJQOmdYgPZ1hs2iQ6sT5PVHRkGkyvW3jSoR3AwnBRwO56N7ykzPYyotnTAUQSg+aMKwHE/23X2wcbmGRDsJbaBlGWeV66anaC2VrXf8fKmiPNCbfim8TuILulkaTT8gwl6AQybRB8u7mY0mCRag9NqBc4p4e3XcnEXHMD9J4ukiVjQ4xZyvzZK1q7skgEocNRg0GSYn8kXJ7KDuGRkFFESAcHct6zaegykjLEdYgyUN3zlx5zXoSr01wOeHVmF13MRHFwbI3v4bmQmuLhw3/9xiVo45LDqqIZVsSJrbD+/dVyEb54At+KmA/k3NjQfwm6OyIjMONVY4LaEWEpWfLWIdnDG3/3pfs0TTgmXGzILxnMZTOBCHhzWPoWZ4GJ6+CZzOZ5xuNYcvHC3rI1HCsYWbg5HQIDgvkzLi28InrpRAFxww3CScwHpG62fPhggazjekdi4/6y0yKaGAF93rHg4F4fDgP26+tQzmNA8VkVK1IdI4+VwSdkl0bIwT7UqY8O8+B4aISDIkLPr3OSG4Ek+lD+KK+3CckDMkZFbyhfcyoKoVg5ZH0vtnAyvrc96mwV9vG2gv/EVDYI4Ob4HfNkNfA2+ohAb4slXndgYViXtAN4b1ekTLuK3ECvXpp2xGswcu2T/JuEIeLUCtM2dYCgiCHpsvT+qasabua9GJUb9PAoGOs2ifHYcK7iO6zKGO+CGcN8GRd4GDQq39u7wbXLe6SibWaoxrCoWOLsqLUENhw39Pqq33w+Gb7P4C4lCrPxXUg7Vmf/Gco7pS/d9tHCv8NPiimsg9XTpcN71Se+nNYETEVGEDogM0UCXpkR2/DgmrP0mFMo52tHL9RxJTbmFFZ3B9Qf+Z3vuixD/QpXy5rI/7OuG9PybMKy0BxctQfz58IUJXGGOwM/oPn4/NrTcBgkOjuefDRtPvW5zND02fNXe/Hsx4WIZOFZk4Zc28Q9Fpvus4iEIQu2IXLsLNBCJkrHv73uQKwK8LiSMZR34F+AgPYmTIWUmsrPH6edHBr8+NjJgLeUuzrcOHj09thl//wGuY2M/PbhF4XY82R8NLR8E9236ObIXaEJwKM1+Jy/BQSXbY7NIGd2jI18VZCoqdAzhMBK/mUM7zRUKZoY5+f2N2TPNICmipMzUE2PgtvWSearleNQRVWHPjG8SDZFx/cxg//eOzIzpnj5zeBdKm1EShRm+2D4ByWUJIz0i27c7KFXEpPC9zMIJDCDY3AT6W3cqKmzzR/pbuE9SY/0a1OEUg0WIJ98zwDhkSMtXLebDuqBbBvivMuC9Zu4Pt+Gs5DPP19TUtIEoKf9GBFfPOlsqJXDb2hplPXtlE/5MhDZ7VPDrRXOu85g/LXI6rLrHbRrD1JjKIqS8EDNESBe3NrHRBypenKbO2MkZF/7AFfyBixe5nI2mFTX69CQMFp9yIQm3z6ZD5xsNHrZl43BL/mpLe6ttweWun7djJ/S2e7hEhcYAgN568HSJtAum7lS6czhUYZsZEziv7O3Rrq9M6PWmUi9U8COiwzNS40kslfZJfEjGEiaoRPdx+d8QsAybw09cHI46ofOPvP64JbvyZ0hDLAaaHu3/sZBPzhiGFSWd2EyLTD1RRIaipv+BIFCGLgw1RJ4DkVTJXBDqSBrfh5P1geCKyy95yRrOPM66zKKRXPomJDvYHBrNbGiUw6HzYS7TKDknz5R1lZWQSoiYFB24lIv4LXdDptJuOS42HnUvNHfEyj5YVseDcQT6WW2lYNlzJgwLfFvo4rQESIJ+XHd9ZOTh4m4QwadH+S9Rw1ejBEedlUF4XoqB3pRy9KI0czkKySSpLcZuv9MFk1euXgvTbgDaMLHoc8wqU13Tvf0macYTAbW+ITC/3wfLpwsHJcNgcnN//zVqmFYluPEDAlZxIQgE9/mO3IfVALDl92eGBbwvZK20ZTJb2xod/o3m39k6pK3ty6uvuNvap157jf14ge1RS0YWocBI4e3uLDVPblbq2SfpxVKbPzCl0X39/6fWT3Xk0f0CfuDicGS2Tb8g9a3l+4Z3+VDIWqmGDZHfcSnuzi7UPFVHBESmvlqJ3abJvd2ci5jgYGzk5+2q+FZlfLgwI3jdAXHdvVNYjEuqBAfFuWZ8r/Z8dSLB5RBker0MZNAYcCju5jLXygKgsXFgqdx6rKC+HifhNke9Sd3y4YI0fhq4uOKSN5ddwBruwY1xPtWfomXc/zW7cu83YB9t/sBp7x8S+CFLP1WCo0GmRQd+ysvllm4/8zgLIKxt5sV1eYkLFtYJeNtBDFmVWSgtU4IXDEfvV1BWLSVBmdSc2C4eaTLX+8q23L9wWbHhJGct68dEcDdEBqzjOuS4LRP3nJdWdoGQOzkmOJE37V3m5lgbK7egyhXlwdtd9ZtoZTCtga4zvr9r29NaTokYywFcJve6QAGvY3s2HCRs6xqUgHtE1Nj8gfDxXPdRpVICw8dEcBjsPNJk+LIHoBOs350rTZeDyTof8vJ2LkMOA0KEmmCtqccujhAaQ6yzmACrVXS/xZqSMgtu5DK718ULYB0S5iMeEGEa98sdZx7gUldA+DOuCZrPum1MBEeDPTE8+F1eLrdwy0mpBatfGhP6Jpdyy4oV3nYguO3HCq7WWUU5HIdKwQu+qZ8Y0apMvuIwsqhlGGZAcDE9O2wTXGtt94RtZ17gEicRXnbr4MCVrHAwE9z46KAVXARHwcwZhXHKK5KSPkQsfM+l3Eqav8FhoMR/vu98gxnmWk/v6OMr8bWSyBkFpmogeUmxUMLZPYIrqILESWRPQOrKZcU9M8HB5FkBa+UGLlEOztRVKaf/xAoUS7t5Y7q+wnUBsAzO28boAA/B5WL1QUPeYSuq9XsfzredE+W0afJ9u/vsPVIuSvi8nh7aKUEWkEt+Pf0sF9cFHDNH4xza8DETHI356Mgu73EdchhPXtmYw2Q2ZYX9wbiwuQ5pPAHRbT18XporhBUfTaFdwq9n/o9LbKu7OFgFJ0YF1avbz4sDpQwHjzsEBAfJ7wtb5rWJ4CZEd/6ai8MBotyiakrZGWILcI21pVLl02M6fSQ18gQIjPRyESurTSL0vvzf66hoHLlRB0cyBDYZY9TbOhjOJvCenXqDIZexoSI9tp4vPBjyCFeZDYiTyHZfg3NYacucNhEcDfzMNZ34wqvgUFzwy4mXbAFOre0zY7vNkZbuYXwmaT/ytqK4zMNmYHFTLtx17n412Jl/Nx5/TYjAGgzOTm04bOPqq3nx+6x3ubhI3aFxKc67Lvhl9RnZWsT/mP0BF1zgso/EdlnANsvvrWwmuEdGhS4w8DxESD65Xefugn4jHu9ngh8JkUe59UorG/n99OgRiFwoQ+LtAdHbGNycitC24contHUX5baXTtzARTR0225celLdtcEqOG1EVynqiWIs4c3PAwPheZnVZoIDKz8IC1El14GE8WRJUvYzMs/HP+/o9ZSwLoeEy+RHIkdBPFDi/B4cFsT/cg8NgM1YmZobf+nyFS8ZPieUOndlxJn+TgQGwJ5alZHIJbbVHdskxsE6eZFhWtUmc37Ons3lewOXRSb8a6oTWGlgM8HRGHNvDHuM13jy7M85s3gAbagPLoADcWFefC/+0KC4MRPGdJ2DrPIt5jkQprNSiIgR5jUrJe/ZwrLqTjIIjhVfJVWXha2jXi5OUqPvqWCT8gS0DN8b9ur/buyWwIqPxtrRy6ZwV43iggtc8YFRof/mgYOL4KaNDPkvF4czQbhsa86feYBtqM97d/eJN5RxqB7kR/F3y0y4o/dVpl3coOfgX8kRWSPBumRzzktcuVWcyPFq17aUs6tlN6ki5eTlh9fL4m4IocpRAtglfP/68VgCV/Y5FQrq3X4DPTbDAwYXwdFECXFd/sHF5SBWTvsuy+rLIjwLoD7E5WAxsv0BEii+vz471KrlFOE6/xLSv6CzJvyGfECe3CpORIDDSS83wAmK0g0WwIdzi6s9uLhI3YmxV+9O7Nnoa0issFK86/xf8x7i2hvA8debu7/KOlfddtwE9/iYsHe4FU6wZFRDvp0XaGv93p7c+wmbrIsIVF1/f9/xZr2t7ph3DO28VEispAFliFEykaTjWOT8x5PBH0rjbgFup2Ck+FnGEub+cOxvXNwNkwf5uFzCmxfcIWXcBEdi15QBHVdziV0oJPPwmqNfyUCeeQyE15ycOTr4X0xcF0ovuTeUojYNfBQ2BLHyJNf6ZC4MY8H4ols+nCzQH/k0famUqBICCLrbojvDp8qAjUIMEzae5HPAA47FE3v+UQQOboKjSV+7tedfuHQn9IUj3Lmhmv+8C0KlKfUgacjgQR7Ol1Fn8Qm1eVBh+G9CYqXaBPJ/dwgrJb1ss+LAxTu4/Ft1cUL+0RDP3ZZGLRG0zVmXOYub60JiUYI/BD4hgiPdift1G3C5CSuPCAFvbd1rp/a+s1FRF8aVHU9Fd2fB2aSY4E+4xWaWCVja6E9CQjPC9+g6Zsn+/0mrbI39+nBKXyncDVXkfGdtRtwkTxgXcdmbw55i2bLG2ggRHA38zsTwp7l1HSwCivVDoouw7I8b6Ju4EM8dVkVB6I7LpvS6D+JnDsucFLYT18Ob781zlgkY21Rdrrk6qZWxnz2avfjFgYXSdFeU7IuP8l+Oi/2QjLW8vOrw+9zcDbbbx27obnNkSV24hQkOCuSvMNee4NJ1YLGEYr1Y9pO9S++PvL2eAQWbN6WP72q4NJbasnnPx4XIq6Noy8RNsC1VLVuYgnfVeTiItfXigvz31H5SKr/RM8WIdJrCBRuFk90Y8n8ytkSY4AiIj+7qNZWbyyEq4601GX+TsRjzGOBgp2ffFPJGXZg+jh9os2hyQ2Sn1UyGGJkLaKJjjVm8d7fBQ1KpfxLhbu8xA1KGDN+i4ZEVB5dxw4YS5s+OC5fyAKQUgiMuB8XWuhindnjooY1Np5+H519qIVXUxE+AU/uiooMhU+HIs0MiECdZoQZO3d+pahnEms+bCNEJ6V+24sayfcI3h/8On5uLFHGSDFveLpUQ4RaKwGTuC+PcxORTZXzRLkT447s9LQMOGkMKwdFA707q9QQ3l0O6xdTEfatlLco8DiL/g0kUyHljeGcEOlt9c5llzgdHBC/iEplZBmdoU1l9hSlbvqQasZvin81ES6JkwoaTM7n1o7oww0e68eGBg8SXYhxhwvLDq3n9bnSBgPDflQWLNIJDyE0q3sbiywinRw1Plw1ByNd9shZG4xBHI1HAlhR4a/PTG2dSbm6Zi3Ogsfot2LXf4CPJVahkUQf/S3nXQsL3zLL0RdzDgLstu72n1JIZ0giOFvX+tH58MY3UmUK+VmV+AsekNzeCNOyI6PBXm4hYKYQFxGMW2zLAlA92rTHUSAy/JBWDxZ/KACSlBc3flvcol6HEKNaWKXHDEj+pBEfm9pmjgudyH0xwOiVCwQG/eykHix6Pd+zPZnHQynKYxyCXzopDBbdxxSRawyN07QNPDO4jC8W3/Hd/isGbk/PC/7dyam9pbxya1ySV4GjQv07s9Qq3voPbDREKE2XHWcrYQFwmZ1EP0y4+uUtXaiSZ/mRgwjgG6W3xX2Uu5taN6oKCywyW5ddkiZIw4szJLbvE9xgdZQT0av8/qBKb5WHMOJJ0gqNH/JZNCr+fO0IDBpQJSw9944iipaP75PQiTOyNT79/p8nT24xpUidgWZbiHiJREvGSSI3iPN7gbkvui5wim9g0ITgaFHLvp5EBbse5OV07J8O0j/Y0+layFshQG5OiWNTaNIPfVRWyEfNS90hNrMUB3zA9StrLQ9GL9u7kFiWN/r8nqdq4FnvJeQWog7L+0UGjbEqXsRySKl9lFf8BOsID6jPp2yLhuuA53DqqvqBqMlv8x3u+TL9YKac+CUFIaVIP9r8FB/ysDIAB33LugPPf/X//kQGLtTE0IzgyoEAmf5Xb0EBhXyszlxw5Uxyu1eJ5xn1wVMgC7jXxTGjsw2zI4J+itmeDHG7e+syXEtMv3MUtqtUFzpgm9R7SpNZLgJtyLCfg8Ri+8C0T8cP/N1gGLA2NoRnB0YSQyd+CafUCt2iJMKHrFu1J1xIBto5NYWNQqH/mXpOtE+rf3ipx04Msz36fPUeac5v0tg6uh5EmNV3GEpEJEDgh8cC33FkKv/v/pARK24XgaNItjw26VkS0hKXJFWLCZzI2RdYYz40JddSAZhmcsN4lDCNE1LiP9q/j1ousIR4HHOUtYmTtyQ0Ld6Vyx0oSEBL9f42tSVMORxMjpOoImXu5xTDjG3P3IArlXlmbIzqOkuqv8ePzPDAWVF3x5elXp89VZwIxriHR7+5OkxZJQpNRFe4nBw9sqLyFrWtANMlC6JVduaOBJPv/7EpwJtHybzD7HuMWw+AqmLY8Yyn0uQhbN0Or9ok3oVSgTo7w4nI802uHj8z/IXNSTkjztdEaYCRJvCv8AYQC7pOxJOhttyKa5AluvVKy/09tTZpzODMAsFrG8ZZjUMZArF7E/LQM2blzaghq6Pf40WEfcF8gvJPq2I/w3GvO9nyp5n8c7ulDAz4C7qRUbSODGvQ2flHXaJWskOX/Y9ke3QiOrJaJk8Mf4XaI02rwuOEt/9m5kWVherRBqcC3mpuLwN3FqZxwF/NOysHcisvtuMW0uhsAnS022GPnwj8NkJJQShcCLuAjQnqlsdxGTz3OinkO3QiOJsTNtnh8D++fuQ8p9Lmkk6XXzvzq4D/1RFJDcymlAnUSKxnXq+q0Vhsnq6CyR9zclJT0gsowacRGTxlj7356auh1avOz/n7ju6lbuP1tNImx3MafyOrMOqeMdroSHAH85aNRE4UAh7EChWBehBFlmtA4EjrDWVuI5NTPuC8QRhgq2d8WYByxgWYIOEjKKx+Mv2HSApJpKhRPzXspJhBhfwr3FP1gJHmP0rm49TZwW5TbWIOIKN2t37oTHCE97YlBQ8hSxf0hAhxGlM/JXM09hqSOM8f1eF1TLqd3MVmaT+aceCjlwPNDesmKJEH00YPzt599XMhKTEHyj0bdLukI2DSM7gRH0MFClTbv1rAXhPQ5GFHIXE0OT5tWLLkx3B7H4Aj/SWMDCqt/rY1UYhHFFS7VjY8NGI0MgCOiQ1F/el4KGQofcTu3aRAqt/FklN2il+xCcLRuZGL/C/rcT0IvmCLIOfAfKbn2tly+Ob7ny0IWWJXTyCpSnqu87C/jYEsZA+b/ZVN73QOfpZQUF3IJxS7cu1XIH0h629Re99K7glLWyDGI3QiOYF335NCbhHQFEn2gkMOitotj7dK6gGPvQq7crxpyOVZjyBVpixIZCMQ27+bQF6AjSXmHm1K1IubuzBCySEJvix/QcQVg+lxkaaJ97UpwBDzYe28D5HzuD0SHKIPe4xek/sQ9hoSOc++IeFJLLicBRH2GABeZGdv5bZJgZExo8geeEfIHGsvbVyU+MMjmMoky1mA5ht0JDuw9Y218v4nc8Za0GijBlM4zfek+KU/R8iCZ9FJwua0acjkWsFg5IctYtrchx3a0/4eoSSKlaCoBAOnlEOJpPYV0U1hJ9zw3NNT2BcnvYXeCoyUhsfNbOJH/LmTtg7tgYdq5h5Fa/5Z8NLGNiIchHxZaA9s0jbViNa6Iz1R3BBBbfGTHz+HYflTW4JBaNkJ6CeU2/xMgFLf51ODBsJLmyYJLZByHIDhaAF4h/ev47t4bhHxaeCAkIenUX5C3pf6KjgjWGuhL75+jVOCPduZyGqxMZUgQ25Tevl9DZJMWYI5qYGvXnSi5XojYjHGb8ZA+9uiPFOszOgzBEXgwooyFrM2fP0eDIND52R9OvL1oQ9bj9kDyvMm9pwuJx1aALmd/2VR/kdJIbN/ArzVJFr6RjvXFisMF44WIDXAhuXUhopv+KwsuGeM4FMHRgiBr9xPiciaie2z1sfcQjXKPDCTZMgaZnKdf0+kDIXeHLRPas+3vxHanLDAQRfIBssrvFnJs4+GWuK6evyG5dYYsuGSN43AER7L2geeG9BeKRCHsUDTKiozP7EF0syf3ec5Qqb+FPrf6in5pPEZiWw3OJpPYFs3fkf+IELGRRdLduTDpuZjhsohE5jgOR3C0OHrocePjA26QQnTL9Sc6JFaWkR9KogHFfsYQa6fNaCBZBmK7Q9ZhpJLkILZHhXPvkFGS8fI1DmGRtIYbhyQ4AhQRChuh8D4orA8hBAxxl7pzOsUPxVsXsc5OVVxie8xD1uFvdBz42aZH+S+GgUSauC6N2GAkyXk5pousTHIt8OmwBEeLhcL7MdwFs4RiLmkgIjqIl3qX3dt4X9+xwheGFrvOOyY5tUcEvQ3T/yO8Q9TtB9/px1I4G8z/v80YFKN3uo2teHBogqPFwF3wF4TkLBcWz6DTxX99dIme1ktw6Q1wE8gIbGYTKSnvTKuPwrVuDHlRplMb1sgVC3edixcWI0Fsax/oNx7vFO7QavmyxnV4gqOFQnyZJuyjo4HgMnjs26z3Zq/N+KssBKqNs+yhQZNFQ74qL9UwvQ+nBgv37zjQy+6OuAdi8jvcY9TpSE5tWCP/KGQgoTGNvraHEDzxnSzYtBynSRAcIYB8dLGB7rtkuAxe2Xjqb1TpSUvEmseGPlFMmcXCHJoFWBgMpH+UYvP4gDhZgcgEX+w729MUp7Zo5TOIuLPHdk2A6rFE+ro1GrDJEBytP/mFa6JRPPS4MNEhImV+av4TiGbQ5f0CyixGPY8U3giUKr0yvi0PGYmnONAHXh7WG6LxJhnnjwKRI2dty0zOK48SNigZ9cn5KAD0hgzY9BqjSREcISV95vDuiEYp5z28tYjF7bois/BO1O/YqgeyVz08aIIAl9NXhyNiQxZGXsLwILhoMmTghxKFPRK2lqUXVvUUJjaKIhkWsBj65LMyYNNzjCZHcIScY38Z7hfk1rZUmOioKFFu2Yig15MLtH4ei0oMrL2/70SbU5HYSE3emUHeWGT7dlllCSM9ZAX8Ujm7wDe25Sr7JVq+wegD/ApRJNIspfKQpz5SkyQ4qosCogsA0RUJE52zkwHl4Nr7vLa1CFWGu6qjjL8FZUVMj+n0IYdIzEZ2oiocxLT4vh1WQIroIavgz8b9Z6+PmJVyRNHX5BDblzCi3c2/C/bt2SQJjlBGBwIRBSHKJoqaw2kMcLuQN3/LQd2MkVpuCaWv0CMWtsBcVn3ZU0uYlLFhHFk0vtsTMpM04YJ5Ysz7+zYKZWqbF27ibIDvj5rjQsMJmizBEU4oooBEH3C6QlsOcIP4hNsg9j97k+Egj9cQ5/SIxTAbuRwbh+OxUpqMI8kzBo587Ibu78taN6zA78MFs1CoBkl9YmuynM28lCZNcGZOB/GyM4iuwsZDbP1sISoFDvKPcWA0e5SPXAVHXhwawaTPQUysvlzTjokQbCU46GvAWxmMI4F4z/pXpjkYGlEhWViBHxOqrtUMiY2W1OQJzoLoOkJUy5aSFgNOhwMzHf6iHVpVBEMaTyZKyF0vHKDNQABWm6COzPSBfh/lvhHrKatmJL20Y5i5uQaGqGHCPjYCGjrlM0MDPmzKOltd3DcLgjMTHZT9bpG+rielcDoo+fAXDfV4NblMq1d74N9KorJtapyurPqKPB2OREgQG+rI3Carzj/hH8aRMSEJ204ooj0MUcKfyc8Ga6S0kg3CMEkYQAJmJEAhcQgQXUhcZ480KURH0f4wqMDKloFnkW6TCGbtUFS2DY+cPNQg0Tkp6puo/dE4HwwPMPmfzHtrZBAspmtlrQehcq+PWbRvg2IcEbVEElC4EGaP6fJGU/SzqeG02REcLRjJh0OmhLdfK+BovhpvOEgTPjm4RqtHRCg0CUT3sGbiJXEdskLe2m0GXUiy/GskbiMm8pdXfjmVIMUSSVgnOG/v8SQiSBLUDm9T/L1ZEhxtBJIjb0Pe1sfCqT3mXYVeN2tb7osITcrQwkkOovsIEe8TrRFdefUVd+7DBa4WG+C2M+eN4SGwQkqLHyUxm8TtdTklcVL0NROxUdQ/4NTMYMWNR0kdmy3BEX6gozwI0SRBWk4a9DqEJkX4zEwu0sJfR47x354ePFwRL6/2LdouUsICSWL12nv7TEQM6lDkiZ2UdGYM9KBGxN9TMhTxUYa+ZhIj4ZoY0VSi/nlx2awJjpBCwa1ILfmTNHGNDhmCn1HnPhk1MKUHziKn6zfSsWCuL7EQidn8cOZTAIJ9Jsp/geHtuDZExLyHw1o/BHx/G7/62EdS/Gs0AV0s4MJHZsZ0g2tim0xYHXEs2zbSEVfACBNZ0WoVe8Y+qs3ICOHvdnTD9KgRskzrlnOCoOclbDj5TFwP7wzopb1V4XngxxqDn6sh+cH+o3F4N6u2t6EBngYbEr1ob6qhRpIVkuYmLgzDFN6OC5KlV9qwJLs0bTEER9ilINqIt1OPKNHqMqxp5hsaT9eSmV2m5c98GqAvehaW4XF7P48zaifkwMmi3ojuP6zWztbfYYVMeOXHnNelcTUTscFveizlhZhIWXGbtq7LHu1bFMERgilNZNDc1Izc8ks+0vQPGhiZx1P6dfj64/iB9+AAVdhjM2XPSbi6YeGu3ennKoKkGUYISPjY6AVSez2KKBtPtozX4gjOjBxK8ccDIOJZx5bYRgFS8phBpLsOIl2yLRvhaG1Rz/P+aV8e+a+UKH/LxZGP7caQ16Bb/83R1qwHPC2W4Ai58Ku9Myv5zPNSYv4sdwvcbjpCkmQ+bKHHYTBJAAF/XLL3h6STpdFSuRoNboxwmQDRe51e63G0eVo0wdFm4CafRu+FS9VPTDoKvWmWHN9vFLjdFkfbeGvwABf3gat9Ip2rkSUSgdUHno7uo4WO2RRwa4axxRMcIQLGhj795u48KNWYYsYwuF38IL/PF94b+SB0u0pHPByUeDs1cd93yafKBgqXrKu7QMogR1A5UpIGOnKBVr32pZXgTJiGNdBnxLzU/XiPrKtwzY26u0e6XXWNYdnk8D9RQSG9NpdlHoqDfOWnnASDh7M8y63FZQPR+mMKQGCBpSW0aSW4OruMSsCLF6bmPyRdr6N5KMwK1buWxw+4E2b+U/Y8YIiUuS7204ObFee6aLk6awuhWpbIhLD3m9r2xLG1uVsJzgpW6MUdeo9Aul5Hc5E+A7/dzFHB//jrxF6v6y1mwtQf8PSKgx+tSL9wm7SAY0sckjMbp+rAU9HkE5RS8cvRiEYEnlaCawB7FJwbsWBXhpLQKitesO7BBPEtmxR+H7jAUpFNZO2rOLB/ggNbC/HRxMHxLlvK9zOGxLUkZzYr/qldK8GpYAuxg9+sOFRwu3RjgnleiHRB3i7Vy+7uNY7eIrBl81jbKtbHVZmfKNE1kl70qTc3RMjZN4UkNLXCrKw4lNWuleAYMEmv7sR/lblEExHTPD+iLyID3LI/ndrnTrxJncYAlmoTJM1OnLDyyGrN9DSCgERIfGlPDIoG3LtUgWrhDVoJjvEAKHGYC3YdMQfcMnazrZkpcj42xDPlnYnhTyFzYLttAxhbE6E9vObo6lxwHc04M02ESyIOsLaKkOy71Epw7LhSWsKK+eHClLMPa2JwMMNiIrzIQPest2/p/uS4wUFML8OAEz8c/2P2h0rSLVKINPsIPvgXF93R4wmZpfU0g9eBBm4lOI7NWL879+ZxiQfWS4/IqAsLHWwS2aB7zRvT9f8mxwQnwp1wzrIZnPZ9P9t26mGEqD2r6GhamPgtJ6TSenjbYctjg/qj8lgWB/padJdWguPcfiqzcNv7uzYm5ZQO1ZSbmOEjwqtC1Eag+4kHowLeL6y43DFhR96LSja7K9KNtLCk1sUNYiHhzngHxX1e5ERbi+/WSnCCR0AxqKyEQUUrU7s1rmcu+KqVxbHunCbDyG+PDLiWV68URHOz6d5KcBK2Es7kTsgbS0XeWIjmIp0EeG0awhgLukLmmwM2zd/MGrcSnMQNpccrHlt9bKFu3E4i7PWGMnG1jX/uN1Yr/6CW4Dvq2K0EJ3lniNtNWrznp+TTZYOaLLejMugxnZYg6Pghyehp8cO1EpxGRwDRHfdOW5m51OAisZScRrDWDmsKZE57eEAUnNi7tZ6uJY7fSnAa7josmV5PLz/wYeKe81M1yT6QBbspoLollz6QhUq1cVoJTg1DEn7/7cj5a2//7GBSbnG1q8OJmcZokR1L74+cyFIZTAI6WvQQrQSn4/bDqDIDRpUFit9OD79ZY2sjowhKQKyf2ns8aySLjqhqtlO1EpzOWwsx0+OVlYf+jfCwh+xizaR0o8orhnk3h7707Ljwf+q8/BY/XSvB2ekIUB2VR1Yc/Dw5x1QdS1Zh2obWY9LT4qP8l8+Z1HsGKh1fsNPSW/S0rQRn5+2nR0EmLz+8EZH97TQJETMRWlx379TFU/tOpZdX7bzkFj19K8E5yPYjpWYCcte+lRbp/3uqT/q7k3r9GWb+nQ6y1BYNRivBOdj2E+Ehl205OJ6noR3HGwgmjhYb5rUbOXWPIvYxxcGW2KLBaSU4B91+vPYz+rX1WW8nZ5cMY7JqktWRavYP6LjmtVt7vtTSC6466La21jRx1I0xw4VM824Lf8n+v/nb8h5X6pFYvvxjqndpcG5jmD0qOOGBUaHzYQwpdPQ1tWT4WjlcE9p9JL7euG5f/rSFBy/eH+TilPfY4IBFN0f6fwOxcU8TWkaLBvX/AU8AQLKgUZOXAAAAAElFTkSuQmCC;" vertex="1" parent="1">
          <mxGeometry x="50" y="30" width="86.46" height="90" as="geometry" />
        </mxCell>
        <mxCell id="Pe86LyMRVKb3A-CW0fFo-10" value="&amp;nbsp;&amp;nbsp;" style="rounded=0;whiteSpace=wrap;html=1;gradientColor=none;shadow=0;glass=0;fillColor=default;strokeColor=#FFFFFF;" vertex="1" parent="1">
          <mxGeometry x="140" y="40" width="650" height="60" as="geometry" />
        </mxCell>
        <mxCell id="Pe86LyMRVKb3A-CW0fFo-11" value="&lt;font style=&quot;font-size: 14px;&quot;&gt;&lt;b&gt;Home&lt;/b&gt;&lt;/font&gt;" style="text;html=1;align=center;verticalAlign=middle;resizable=0;points=[];autosize=1;strokeColor=none;fillColor=none;" vertex="1" parent="1">
          <mxGeometry x="150" y="60" width="60" height="30" as="geometry" />
        </mxCell>
        <mxCell id="Pe86LyMRVKb3A-CW0fFo-12" value="&lt;font style=&quot;font-size: 14px;&quot;&gt;&lt;b&gt;Movies&lt;/b&gt;&lt;/font&gt;" style="text;html=1;align=center;verticalAlign=middle;resizable=0;points=[];autosize=1;strokeColor=none;fillColor=none;" vertex="1" parent="1">
          <mxGeometry x="270" y="60" width="70" height="30" as="geometry" />
        </mxCell>
        <mxCell id="Pe86LyMRVKb3A-CW0fFo-13" value="&lt;font style=&quot;font-size: 14px;&quot;&gt;&lt;b&gt;TV shows&lt;/b&gt;&lt;/font&gt;" style="text;html=1;align=center;verticalAlign=middle;resizable=0;points=[];autosize=1;strokeColor=none;fillColor=none;" vertex="1" parent="1">
          <mxGeometry x="385" y="60" width="90" height="30" as="geometry" />
        </mxCell>
        <mxCell id="Pe86LyMRVKb3A-CW0fFo-14" value="&lt;font style=&quot;font-size: 14px;&quot;&gt;&lt;b&gt;Collections&lt;/b&gt;&lt;/font&gt;" style="text;html=1;align=center;verticalAlign=middle;resizable=0;points=[];autosize=1;strokeColor=none;fillColor=none;" vertex="1" parent="1">
          <mxGeometry x="540" y="60" width="100" height="30" as="geometry" />
        </mxCell>
        <mxCell id="Pe86LyMRVKb3A-CW0fFo-15" value="&lt;font style=&quot;font-size: 14px;&quot;&gt;&lt;b&gt;Feedback&lt;/b&gt;&lt;/font&gt;" style="text;html=1;align=center;verticalAlign=middle;resizable=0;points=[];autosize=1;strokeColor=none;fillColor=none;" vertex="1" parent="1">
          <mxGeometry x="670" y="60" width="90" height="30" as="geometry" />
        </mxCell>
        <mxCell id="Pe86LyMRVKb3A-CW0fFo-16" value="" style="rounded=0;whiteSpace=wrap;html=1;fillStyle=solid;gradientColor=default;fillColor=#000000;glass=0;shadow=1;strokeColor=#FFFFFF;" vertex="1" parent="1">
          <mxGeometry x="30" y="120" width="780" height="260" as="geometry" />
        </mxCell>
        <mxCell id="Pe86LyMRVKb3A-CW0fFo-17" value="" style="endArrow=none;html=1;rounded=0;exitX=0;exitY=0;exitDx=0;exitDy=0;entryX=1;entryY=1;entryDx=0;entryDy=0;strokeColor=#FFFFFF;" edge="1" parent="1" source="Pe86LyMRVKb3A-CW0fFo-16" target="Pe86LyMRVKb3A-CW0fFo-16">
          <mxGeometry width="50" height="50" relative="1" as="geometry">
            <mxPoint x="530" y="370" as="sourcePoint" />
            <mxPoint x="580" y="320" as="targetPoint" />
          </mxGeometry>
        </mxCell>
        <mxCell id="Pe86LyMRVKb3A-CW0fFo-19" value="" style="endArrow=none;html=1;rounded=0;exitX=1;exitY=0;exitDx=0;exitDy=0;strokeColor=#FFFFFF;entryX=0;entryY=1;entryDx=0;entryDy=0;" edge="1" parent="1" source="Pe86LyMRVKb3A-CW0fFo-16" target="Pe86LyMRVKb3A-CW0fFo-16">
          <mxGeometry width="50" height="50" relative="1" as="geometry">
            <mxPoint x="820" y="590" as="sourcePoint" />
            <mxPoint x="840" y="300" as="targetPoint" />
          </mxGeometry>
        </mxCell>
        <mxCell id="Pe86LyMRVKb3A-CW0fFo-20" value="&lt;b&gt;&lt;font style=&quot;font-size: 26px;&quot;&gt;Movie Hero(Banner)&lt;/font&gt;&lt;/b&gt;" style="text;html=1;align=center;verticalAlign=middle;resizable=0;points=[];autosize=1;fillColor=#808080;rounded=1;glass=0;strokeColor=#6c8ebf;" vertex="1" parent="1">
          <mxGeometry x="280" y="153" width="270" height="40" as="geometry" />
        </mxCell>
        <mxCell id="Pe86LyMRVKb3A-CW0fFo-22" value="&lt;font style=&quot;font-size: 23px;&quot;&gt;New Release&lt;/font&gt;" style="rounded=1;whiteSpace=wrap;html=1;fillColor=#808080;align=left;" vertex="1" parent="1">
          <mxGeometry x="30" y="390" width="780" height="40" as="geometry" />
        </mxCell>
        <mxCell id="Pe86LyMRVKb3A-CW0fFo-23" value="&lt;font style=&quot;font-size: 23px;&quot;&gt;New Release&lt;/font&gt;" style="rounded=1;whiteSpace=wrap;html=1;fillColor=#808080;align=left;" vertex="1" parent="1">
          <mxGeometry x="30" y="580" width="780" height="40" as="geometry" />
        </mxCell>
        <mxCell id="Pe86LyMRVKb3A-CW0fFo-24" value="" style="rounded=1;whiteSpace=wrap;html=1;strokeColor=#66B2FF;fillColor=#7EA6E0;" vertex="1" parent="1">
          <mxGeometry x="40" y="440" width="120" height="130" as="geometry" />
        </mxCell>
        <mxCell id="Pe86LyMRVKb3A-CW0fFo-25" value="" style="rounded=1;whiteSpace=wrap;html=1;strokeColor=#66B2FF;fillColor=#7EA6E0;" vertex="1" parent="1">
          <mxGeometry x="200" y="440" width="120" height="130" as="geometry" />
        </mxCell>
        <mxCell id="Pe86LyMRVKb3A-CW0fFo-26" value="" style="rounded=1;whiteSpace=wrap;html=1;strokeColor=#66B2FF;fillColor=#7EA6E0;" vertex="1" parent="1">
          <mxGeometry x="355" y="440" width="120" height="130" as="geometry" />
        </mxCell>
        <mxCell id="Pe86LyMRVKb3A-CW0fFo-27" value="" style="rounded=1;whiteSpace=wrap;html=1;strokeColor=#66B2FF;fillColor=#7EA6E0;" vertex="1" parent="1">
          <mxGeometry x="520" y="440" width="120" height="130" as="geometry" />
        </mxCell>
        <mxCell id="Pe86LyMRVKb3A-CW0fFo-28" value="" style="rounded=1;whiteSpace=wrap;html=1;strokeColor=#66B2FF;fillColor=#7EA6E0;" vertex="1" parent="1">
          <mxGeometry x="680" y="440" width="120" height="130" as="geometry" />
        </mxCell>
        <mxCell id="Pe86LyMRVKb3A-CW0fFo-29" value="" style="rounded=1;whiteSpace=wrap;html=1;strokeColor=#66B2FF;fillColor=#7EA6E0;" vertex="1" parent="1">
          <mxGeometry x="40" y="630" width="120" height="130" as="geometry" />
        </mxCell>
        <mxCell id="Pe86LyMRVKb3A-CW0fFo-30" value="" style="rounded=1;whiteSpace=wrap;html=1;strokeColor=#66B2FF;fillColor=#7EA6E0;" vertex="1" parent="1">
          <mxGeometry x="200" y="630" width="120" height="130" as="geometry" />
        </mxCell>
        <mxCell id="Pe86LyMRVKb3A-CW0fFo-31" value="" style="rounded=1;whiteSpace=wrap;html=1;strokeColor=#66B2FF;fillColor=#7EA6E0;" vertex="1" parent="1">
          <mxGeometry x="355" y="630" width="120" height="130" as="geometry" />
        </mxCell>
        <mxCell id="Pe86LyMRVKb3A-CW0fFo-32" value="" style="rounded=1;whiteSpace=wrap;html=1;strokeColor=#66B2FF;fillColor=#7EA6E0;" vertex="1" parent="1">
          <mxGeometry x="520" y="630" width="120" height="130" as="geometry" />
        </mxCell>
        <mxCell id="Pe86LyMRVKb3A-CW0fFo-33" value="" style="rounded=1;whiteSpace=wrap;html=1;strokeColor=#66B2FF;fillColor=#7EA6E0;" vertex="1" parent="1">
          <mxGeometry x="670" y="630" width="120" height="130" as="geometry" />
        </mxCell>
        <mxCell id="Pe86LyMRVKb3A-CW0fFo-34" value="&lt;b&gt;&lt;font style=&quot;font-size: 13px;&quot;&gt;Movie&lt;/font&gt;&lt;/b&gt;" style="text;html=1;align=center;verticalAlign=middle;resizable=0;points=[];autosize=1;strokeColor=none;fillColor=none;" vertex="1" parent="1">
          <mxGeometry x="70" y="480" width="60" height="30" as="geometry" />
        </mxCell>
        <mxCell id="Pe86LyMRVKb3A-CW0fFo-35" value="&lt;b&gt;&lt;font style=&quot;font-size: 13px;&quot;&gt;Movie&lt;/font&gt;&lt;/b&gt;" style="text;html=1;align=center;verticalAlign=middle;resizable=0;points=[];autosize=1;strokeColor=none;fillColor=none;" vertex="1" parent="1">
          <mxGeometry x="230" y="480" width="60" height="30" as="geometry" />
        </mxCell>
        <mxCell id="Pe86LyMRVKb3A-CW0fFo-36" value="&lt;b&gt;&lt;font style=&quot;font-size: 13px;&quot;&gt;Movie&lt;/font&gt;&lt;/b&gt;" style="text;html=1;align=center;verticalAlign=middle;resizable=0;points=[];autosize=1;strokeColor=none;fillColor=none;" vertex="1" parent="1">
          <mxGeometry x="385" y="480" width="60" height="30" as="geometry" />
        </mxCell>
        <mxCell id="Pe86LyMRVKb3A-CW0fFo-37" value="&lt;b&gt;&lt;font style=&quot;font-size: 13px;&quot;&gt;Movie&lt;/font&gt;&lt;/b&gt;" style="text;html=1;align=center;verticalAlign=middle;resizable=0;points=[];autosize=1;strokeColor=none;fillColor=none;" vertex="1" parent="1">
          <mxGeometry x="550" y="480" width="60" height="30" as="geometry" />
        </mxCell>
        <mxCell id="Pe86LyMRVKb3A-CW0fFo-38" value="&lt;b&gt;&lt;font style=&quot;font-size: 13px;&quot;&gt;Movie&lt;/font&gt;&lt;/b&gt;" style="text;html=1;align=center;verticalAlign=middle;resizable=0;points=[];autosize=1;strokeColor=none;fillColor=none;" vertex="1" parent="1">
          <mxGeometry x="710" y="480" width="60" height="30" as="geometry" />
        </mxCell>
        <mxCell id="Pe86LyMRVKb3A-CW0fFo-39" value="&lt;b&gt;&lt;font style=&quot;font-size: 13px;&quot;&gt;Movie&lt;/font&gt;&lt;/b&gt;" style="text;html=1;align=center;verticalAlign=middle;resizable=0;points=[];autosize=1;strokeColor=none;fillColor=none;" vertex="1" parent="1">
          <mxGeometry x="70.00000000000001" y="670" width="60" height="30" as="geometry" />
        </mxCell>
        <mxCell id="Pe86LyMRVKb3A-CW0fFo-40" value="&lt;b&gt;&lt;font style=&quot;font-size: 13px;&quot;&gt;Movie&lt;/font&gt;&lt;/b&gt;" style="text;html=1;align=center;verticalAlign=middle;resizable=0;points=[];autosize=1;strokeColor=none;fillColor=none;" vertex="1" parent="1">
          <mxGeometry x="230" y="670" width="60" height="30" as="geometry" />
        </mxCell>
        <mxCell id="Pe86LyMRVKb3A-CW0fFo-41" value="&lt;b&gt;&lt;font style=&quot;font-size: 13px;&quot;&gt;Movie&lt;/font&gt;&lt;/b&gt;" style="text;html=1;align=center;verticalAlign=middle;resizable=0;points=[];autosize=1;strokeColor=none;fillColor=none;" vertex="1" parent="1">
          <mxGeometry x="385" y="670" width="60" height="30" as="geometry" />
        </mxCell>
        <mxCell id="Pe86LyMRVKb3A-CW0fFo-42" value="&lt;b&gt;&lt;font style=&quot;font-size: 13px;&quot;&gt;Movie&lt;/font&gt;&lt;/b&gt;" style="text;html=1;align=center;verticalAlign=middle;resizable=0;points=[];autosize=1;strokeColor=none;fillColor=none;" vertex="1" parent="1">
          <mxGeometry x="550" y="670" width="60" height="30" as="geometry" />
        </mxCell>
        <mxCell id="Pe86LyMRVKb3A-CW0fFo-43" value="&lt;b&gt;&lt;font style=&quot;font-size: 13px;&quot;&gt;Movie&lt;/font&gt;&lt;/b&gt;" style="text;html=1;align=center;verticalAlign=middle;resizable=0;points=[];autosize=1;strokeColor=none;fillColor=none;" vertex="1" parent="1">
          <mxGeometry x="700" y="670" width="60" height="30" as="geometry" />
        </mxCell>
      </root>
    </mxGraphModel>
  </diagram>
</mxfile>
